<?xml version="1.0" encoding="UTF-8"?>
<!DOCTYPE svg PUBLIC "-//W3C//DTD SVG 1.1//EN" "http://www.w3.org/Graphics/SVG/1.1/DTD/svg11.dtd">
<svg xmlns="http://www.w3.org/2000/svg" version="1.1" width="200px" height="200px" style="shape-rendering:geometricPrecision; text-rendering:geometricPrecision; image-rendering:optimizeQuality; fill-rule:evenodd; clip-rule:evenodd" xmlns:xlink="http://www.w3.org/1999/xlink">
<g><path style="opacity:1" fill="#fbfdfd" d="M -0.5,-0.5 C 28.1667,-0.5 56.8333,-0.5 85.5,-0.5C 78.0799,1.52244 70.7466,3.85577 63.5,6.5C 52.2096,10.4732 42.2096,16.4732 33.5,24.5C 20.9571,35.0436 11.9571,48.0436 6.5,63.5C 3.58844,70.6547 1.25511,77.988 -0.5,85.5C -0.5,56.8333 -0.5,28.1667 -0.5,-0.5 Z"/></g>
<g><path style="opacity:1" fill="#fcfcfd" d="M 111.5,-0.5 C 140.833,-0.5 170.167,-0.5 199.5,-0.5C 199.5,27.8333 199.5,56.1667 199.5,84.5C 197.406,79.4739 195.906,74.1406 195,68.5C 194.451,66.2404 193.284,64.5738 191.5,63.5C 191.784,61.5853 191.451,59.9187 190.5,58.5C 189.244,54.3126 187.244,50.6459 184.5,47.5C 180.021,39.5448 174.355,32.5448 167.5,26.5C 163.432,22.1014 158.765,18.4347 153.5,15.5C 149.752,12.9594 145.752,10.9594 141.5,9.5C 136.994,6.44761 131.994,4.44761 126.5,3.5C 121.5,2.16667 116.5,0.833333 111.5,-0.5 Z"/></g>
<g><path style="opacity:1" fill="#378dcb" d="M 85.5,-0.5 C 88.8333,-0.5 92.1667,-0.5 95.5,-0.5C 95.5,0.5 95.5,1.5 95.5,2.5C 93.2655,2.38014 91.0989,2.71348 89,3.5C 87.9456,4.48243 87.4456,5.64909 87.5,7C 84.854,7.49742 82.1873,7.66409 79.5,7.5C 79.5,9.5 79.5,11.5 79.5,13.5C 90.0199,14.7552 90.0199,15.4219 79.5,15.5C 79.7852,17.288 79.4519,18.9547 78.5,20.5C 76.9984,21.0831 75.6651,21.9164 74.5,23C 72.2992,23.8249 70.4659,23.3249 69,21.5C 67.7581,22.8721 66.2581,23.8721 64.5,24.5C 63.8333,28.5 63.1667,32.5 62.5,36.5C 60.3379,38.0198 58.0046,39.0198 55.5,39.5C 54.8413,43.9939 52.1746,45.6605 47.5,44.5C 47.5,45.5 47.5,46.5 47.5,47.5C 46.5,47.5 45.5,47.5 44.5,47.5C 45.6605,52.1746 43.9939,54.8413 39.5,55.5C 39.0198,58.0046 38.0198,60.3379 36.5,62.5C 32.5546,63.4909 28.5546,63.8242 24.5,63.5C 24.3577,66.617 23.0244,69.117 20.5,71C 21.448,71.4828 22.448,71.6495 23.5,71.5C 22.0885,74.6755 20.9219,78.0088 20,81.5C 16.8856,85.6813 15.0522,85.0147 14.5,79.5C 14.1203,81.0207 13.9536,82.6874 14,84.5C 12.3876,80.5341 10.7209,80.5341 9,84.5C 8.27319,80.7207 6.77319,77.3874 4.5,74.5C 3.67346,78.4592 3.17346,82.4592 3,86.5C 2.47816,89.2813 1.31149,91.6146 -0.5,93.5C -0.5,90.8333 -0.5,88.1667 -0.5,85.5C 1.25511,77.988 3.58844,70.6547 6.5,63.5C 7.5,63.5 8.5,63.5 9.5,63.5C 9.18665,66.2469 9.51998,68.9135 10.5,71.5C 11.4776,71.0233 12.3109,70.3567 13,69.5C 13.3076,70.3081 13.8076,70.9747 14.5,71.5C 14.4732,68.5548 14.8065,65.5548 15.5,62.5C 13.1335,59.9035 12.3001,56.9035 13,53.5C 14.7482,51.8648 15.9149,49.8648 16.5,47.5C 18.3325,46.7515 19.9991,45.7515 21.5,44.5C 22.3567,45.7357 23.0234,47.069 23.5,48.5C 24.365,49.5827 25.365,49.7494 26.5,49C 27.9485,45.6269 29.6151,42.4602 31.5,39.5C 35.1667,37.8333 37.8333,35.1667 39.5,31.5C 42.1667,30.8333 44.8333,30.1667 47.5,29.5C 47.5,27.5 47.5,25.5 47.5,23.5C 45.3193,23.7163 43.6526,22.883 42.5,21C 44.7658,19.5736 46.4324,17.7402 47.5,15.5C 48.552,15.6495 49.552,15.4828 50.5,15C 54.973,12.1155 59.3063,9.28218 63.5,6.5C 70.7466,3.85577 78.0799,1.52244 85.5,-0.5 Z"/></g>
<g><path style="opacity:1" fill="#5891b5" d="M 63.5,6.5 C 59.3063,9.28218 54.973,12.1155 50.5,15C 49.552,15.4828 48.552,15.6495 47.5,15.5C 43.3529,19.3149 38.6862,22.3149 33.5,24.5C 42.2096,16.4732 52.2096,10.4732 63.5,6.5 Z"/></g>
<g><path style="opacity:1" fill="#5475b7" d="M 141.5,9.5 C 145.752,10.9594 149.752,12.9594 153.5,15.5C 153.709,16.9217 154.209,18.255 155,19.5C 157.026,19.9147 158.526,20.9147 159.5,22.5C 157.266,22.6199 155.099,22.2865 153,21.5C 151.178,23.102 149.345,24.7687 147.5,26.5C 146.311,27.4287 144.978,27.762 143.5,27.5C 143.823,31.226 143.489,34.8927 142.5,38.5C 138.275,32.9277 136.109,33.9277 136,41.5C 134.424,42.0125 133.091,41.3458 132,39.5C 131.5,39.8333 131,40.1667 130.5,40.5C 131.5,41.3333 132.5,42.1667 133.5,43C 132.584,43.2784 131.918,43.7784 131.5,44.5C 127.486,44.3345 123.486,44.5012 119.5,45C 118.536,46.7255 117.869,48.5588 117.5,50.5C 116.542,50.9528 115.708,51.6195 115,52.5C 114.498,55.5131 113.998,58.5131 113.5,61.5C 112.834,64.0277 112.168,66.6944 111.5,69.5C 110.583,68.8728 109.583,68.5394 108.5,68.5C 110.493,62.2875 112.16,55.9541 113.5,49.5C 112.453,47.9436 111.786,46.2769 111.5,44.5C 110.091,42.5831 108.424,40.7498 106.5,39C 108.256,38.7978 109.922,38.2978 111.5,37.5C 110.624,36.7492 109.624,36.2492 108.5,36C 112.778,35.0713 117.112,33.5713 121.5,31.5C 121.833,27.8333 123.833,25.8333 127.5,25.5C 127.561,22.9505 128.894,21.4505 131.5,21C 132.872,19.7581 133.872,18.2581 134.5,16.5C 132.726,15.8133 131.059,14.9799 129.5,14C 131.869,13.4641 133.869,12.2974 135.5,10.5C 137.396,9.53443 139.396,9.2011 141.5,9.5 Z"/></g>
<g><path style="opacity:1" fill="#447dc0" d="M 126.5,3.5 C 131.994,4.44761 136.994,6.44761 141.5,9.5C 139.396,9.2011 137.396,9.53443 135.5,10.5C 133.869,12.2974 131.869,13.4641 129.5,14C 131.059,14.9799 132.726,15.8133 134.5,16.5C 133.872,18.2581 132.872,19.7581 131.5,21C 128.894,21.4505 127.561,22.9505 127.5,25.5C 123.833,25.8333 121.833,27.8333 121.5,31.5C 117.112,33.5713 112.778,35.0713 108.5,36C 109.624,36.2492 110.624,36.7492 111.5,37.5C 109.922,38.2978 108.256,38.7978 106.5,39C 108.424,40.7498 110.091,42.5831 111.5,44.5C 105.633,42.1397 99.6327,41.9731 93.5,44C 92.6433,44.6891 91.9767,45.5224 91.5,46.5C 92.4847,48.0983 92.6514,49.765 92,51.5C 90.4559,54.9325 88.7893,58.2658 87,61.5C 85.5809,59.1206 84.4142,56.6206 83.5,54C 84.385,51.8434 86.0516,51.0101 88.5,51.5C 87.2317,47.6299 85.3983,43.9633 83,40.5C 82.5357,41.0944 82.369,41.7611 82.5,42.5C 79.0172,43.0841 76.0172,42.2508 73.5,40C 75.2495,38.6814 77.2495,38.1814 79.5,38.5C 79.4223,35.5133 80.589,34.8466 83,36.5C 85.7952,35.8148 88.6285,35.3148 91.5,35C 91.1667,34.6667 90.8333,34.3333 90.5,34C 94.2364,32.4934 94.2364,31.6601 90.5,31.5C 90.6938,27.2931 92.6938,25.9598 96.5,27.5C 97.8718,25.1323 99.8718,23.4656 102.5,22.5C 103.127,19.2979 103.794,16.1312 104.5,13C 111.696,9.46867 119.363,7.63533 127.5,7.5C 122.208,6.50515 116.875,6.17182 111.5,6.5C 111.5,5.16667 111.5,3.83333 111.5,2.5C 116.482,3.05341 121.482,3.38674 126.5,3.5 Z"/></g>
<g><path style="opacity:1" fill="#3f91cb" d="M 47.5,15.5 C 46.4324,17.7402 44.7658,19.5736 42.5,21C 43.6526,22.883 45.3193,23.7163 47.5,23.5C 47.5,25.5 47.5,27.5 47.5,29.5C 44.8333,30.1667 42.1667,30.8333 39.5,31.5C 37.8333,35.1667 35.1667,37.8333 31.5,39.5C 29.6151,42.4602 27.9485,45.6269 26.5,49C 25.365,49.7494 24.365,49.5827 23.5,48.5C 23.0234,47.069 22.3567,45.7357 21.5,44.5C 19.9991,45.7515 18.3325,46.7515 16.5,47.5C 15.9149,49.8648 14.7482,51.8648 13,53.5C 12.3001,56.9035 13.1335,59.9035 15.5,62.5C 14.8065,65.5548 14.4732,68.5548 14.5,71.5C 13.8076,70.9747 13.3076,70.3081 13,69.5C 12.3109,70.3567 11.4776,71.0233 10.5,71.5C 9.51998,68.9135 9.18665,66.2469 9.5,63.5C 8.5,63.5 7.5,63.5 6.5,63.5C 11.9571,48.0436 20.9571,35.0436 33.5,24.5C 38.6862,22.3149 43.3529,19.3149 47.5,15.5 Z"/></g>
<g><path style="opacity:1" fill="#7d6e96" d="M 167.5,26.5 C 174.355,32.5448 180.021,39.5448 184.5,47.5C 183.5,47.5 182.5,47.5 181.5,47.5C 181.912,45.0274 180.912,43.6941 178.5,43.5C 178.647,40.0566 176.98,38.0566 173.5,37.5C 171.05,35.1597 169.383,32.8264 168.5,30.5C 168.167,29.1667 167.833,27.8333 167.5,26.5 Z"/></g>
<g><path style="opacity:1" fill="#7d649f" d="M 168.5,30.5 C 169.383,32.8264 171.05,35.1597 173.5,37.5C 176.98,38.0566 178.647,40.0566 178.5,43.5C 178.565,43.9382 178.399,44.2716 178,44.5C 174.725,41.1922 172.558,42.1922 171.5,47.5C 169.833,47.5 168.167,47.5 166.5,47.5C 166.69,52.7526 164.524,56.7526 160,59.5C 159.51,60.7932 159.343,62.1266 159.5,63.5C 157.5,63.5 155.5,63.5 153.5,63.5C 154.888,71.7397 151.554,76.7397 143.5,78.5C 145.977,79.88 145.977,80.88 143.5,81.5C 139.033,81.8674 134.7,81.3674 130.5,80C 133.167,79.6667 135.833,79.3333 138.5,79C 136.017,76.2041 136.683,74.0374 140.5,72.5C 141.478,72.9767 142.311,73.6433 143,74.5C 143.171,69.4671 143.671,64.4671 144.5,59.5C 146.517,58.8257 148.183,57.6591 149.5,56C 148.742,54.6361 149.242,53.4695 151,52.5C 151.333,52.8333 151.667,53.1667 152,53.5C 155.348,49.1529 159.348,45.4863 164,42.5C 164.058,39.4413 165.391,37.108 168,35.5C 168.494,33.8659 168.66,32.1992 168.5,30.5 Z"/></g>
<g><path style="opacity:1" fill="#666eb0" d="M 159.5,22.5 C 160.239,22.369 160.906,22.5357 161.5,23C 163.413,25.5878 165.413,28.0878 167.5,30.5C 166.742,34.9901 164.075,36.6567 159.5,35.5C 159.759,38.4797 158.426,40.313 155.5,41C 152.737,45.1772 149.403,48.8439 145.5,52C 143.754,52.4709 142.087,53.1376 140.5,54C 139.149,57.195 136.815,59.0283 133.5,59.5C 133.167,59.5 132.833,59.5 132.5,59.5C 131.609,58.7387 130.942,57.7387 130.5,56.5C 131.814,53.0999 132.814,49.5999 133.5,46C 133.164,44.9701 132.497,44.4701 131.5,44.5C 131.918,43.7784 132.584,43.2784 133.5,43C 132.5,42.1667 131.5,41.3333 130.5,40.5C 131,40.1667 131.5,39.8333 132,39.5C 133.091,41.3458 134.424,42.0125 136,41.5C 136.109,33.9277 138.275,32.9277 142.5,38.5C 143.489,34.8927 143.823,31.226 143.5,27.5C 144.978,27.762 146.311,27.4287 147.5,26.5C 149.345,24.7687 151.178,23.102 153,21.5C 155.099,22.2865 157.266,22.6199 159.5,22.5 Z"/></g>
<g><path style="opacity:1" fill="#e4f5f8" d="M 82.5,49.5 C 80.9754,52.5828 79.9754,55.9161 79.5,59.5C 81.1667,59.5 82.8333,59.5 84.5,59.5C 83.3795,63.0744 81.7128,66.4078 79.5,69.5C 77.3218,71.8584 75.6551,74.5251 74.5,77.5C 71.6314,80.512 70.2981,79.8453 70.5,75.5C 70.5,74.1667 70.5,72.8333 70.5,71.5C 71.4511,70.0813 71.7845,68.4147 71.5,66.5C 69.8333,66.5 68.1667,66.5 66.5,66.5C 66.941,59.6282 68.2743,52.9616 70.5,46.5C 74.3998,45.5701 78.3998,45.2367 82.5,45.5C 82.5,46.8333 82.5,48.1667 82.5,49.5 Z"/></g>
<g><path style="opacity:1" fill="#7469a3" d="M 153.5,15.5 C 158.765,18.4347 163.432,22.1014 167.5,26.5C 167.833,27.8333 168.167,29.1667 168.5,30.5C 168.66,32.1992 168.494,33.8659 168,35.5C 165.391,37.108 164.058,39.4413 164,42.5C 159.348,45.4863 155.348,49.1529 152,53.5C 151.667,53.1667 151.333,52.8333 151,52.5C 149.242,53.4695 148.742,54.6361 149.5,56C 148.183,57.6591 146.517,58.8257 144.5,59.5C 143.671,64.4671 143.171,69.4671 143,74.5C 142.311,73.6433 141.478,72.9767 140.5,72.5C 136.683,74.0374 136.017,76.2041 138.5,79C 135.833,79.3333 133.167,79.6667 130.5,80C 134.7,81.3674 139.033,81.8674 143.5,81.5C 138.36,82.4881 133.026,82.8214 127.5,82.5C 125.958,81.8365 124.291,81.1698 122.5,80.5C 124.022,77.3013 125.689,74.3013 127.5,71.5C 132.278,70.5932 133.944,67.9265 132.5,63.5C 133.234,62.2921 133.567,60.9587 133.5,59.5C 136.815,59.0283 139.149,57.195 140.5,54C 142.087,53.1376 143.754,52.4709 145.5,52C 149.403,48.8439 152.737,45.1772 155.5,41C 158.426,40.313 159.759,38.4797 159.5,35.5C 164.075,36.6567 166.742,34.9901 167.5,30.5C 165.413,28.0878 163.413,25.5878 161.5,23C 160.906,22.5357 160.239,22.369 159.5,22.5C 158.526,20.9147 157.026,19.9147 155,19.5C 154.209,18.255 153.709,16.9217 153.5,15.5 Z"/></g>
<g><path style="opacity:1" fill="#895f92" d="M 178.5,43.5 C 180.912,43.6941 181.912,45.0274 181.5,47.5C 182.5,47.5 183.5,47.5 184.5,47.5C 187.244,50.6459 189.244,54.3126 190.5,58.5C 187.95,57.6422 185.45,56.6422 183,55.5C 180.19,57.4561 178.69,60.1228 178.5,63.5C 175.833,63.5 173.167,63.5 170.5,63.5C 168.238,69.0784 165.571,74.4118 162.5,79.5C 157.263,78.8352 153.097,80.5018 150,84.5C 149.333,85.8333 149.333,87.1667 150,88.5C 152.086,90.7392 153.92,93.0726 155.5,95.5C 155.5,96.5 155.5,97.5 155.5,98.5C 148.26,85.6917 137.594,81.3584 123.5,85.5C 123.694,83.0882 125.027,82.0882 127.5,82.5C 133.026,82.8214 138.36,82.4881 143.5,81.5C 145.977,80.88 145.977,79.88 143.5,78.5C 151.554,76.7397 154.888,71.7397 153.5,63.5C 155.5,63.5 157.5,63.5 159.5,63.5C 159.343,62.1266 159.51,60.7932 160,59.5C 164.524,56.7526 166.69,52.7526 166.5,47.5C 168.167,47.5 169.833,47.5 171.5,47.5C 172.558,42.1922 174.725,41.1922 178,44.5C 178.399,44.2716 178.565,43.9382 178.5,43.5 Z"/></g>
<g><path style="opacity:1" fill="#767aa1" d="M 131.5,44.5 C 132.497,44.4701 133.164,44.9701 133.5,46C 132.814,49.5999 131.814,53.0999 130.5,56.5C 130.942,57.7387 131.609,58.7387 132.5,59.5C 130.833,59.5 129.167,59.5 127.5,59.5C 129.289,54.6805 130.622,49.6805 131.5,44.5 Z"/></g>
<g><path style="opacity:1" fill="#617490" d="M 117.5,50.5 C 116.627,54.8631 115.627,59.1965 114.5,63.5C 113.662,63.1583 113.328,62.4916 113.5,61.5C 113.998,58.5131 114.498,55.5131 115,52.5C 115.708,51.6195 116.542,50.9528 117.5,50.5 Z"/></g>
<g><path style="opacity:1" fill="#e8eef6" d="M 131.5,44.5 C 130.622,49.6805 129.289,54.6805 127.5,59.5C 129.167,59.5 130.833,59.5 132.5,59.5C 132.833,59.5 133.167,59.5 133.5,59.5C 133.567,60.9587 133.234,62.2921 132.5,63.5C 128.171,68.5081 124.171,73.8415 120.5,79.5C 119.508,75.2172 119.174,70.8839 119.5,66.5C 117.833,66.5 116.167,66.5 114.5,66.5C 114.5,65.5 114.5,64.5 114.5,63.5C 115.627,59.1965 116.627,54.8631 117.5,50.5C 117.869,48.5588 118.536,46.7255 119.5,45C 123.486,44.5012 127.486,44.3345 131.5,44.5 Z"/></g>
<g><path style="opacity:1" fill="#3786c6" d="M 95.5,-0.5 C 100.833,-0.5 106.167,-0.5 111.5,-0.5C 116.5,0.833333 121.5,2.16667 126.5,3.5C 121.482,3.38674 116.482,3.05341 111.5,2.5C 111.5,3.83333 111.5,5.16667 111.5,6.5C 116.875,6.17182 122.208,6.50515 127.5,7.5C 119.363,7.63533 111.696,9.46867 104.5,13C 103.794,16.1312 103.127,19.2979 102.5,22.5C 99.8718,23.4656 97.8718,25.1323 96.5,27.5C 92.6938,25.9598 90.6938,27.2931 90.5,31.5C 94.2364,31.6601 94.2364,32.4934 90.5,34C 90.8333,34.3333 91.1667,34.6667 91.5,35C 88.6285,35.3148 85.7952,35.8148 83,36.5C 80.589,34.8466 79.4223,35.5133 79.5,38.5C 77.2495,38.1814 75.2495,38.6814 73.5,40C 76.0172,42.2508 79.0172,43.0841 82.5,42.5C 78.0631,44.272 74.0631,43.4387 70.5,40C 69.1667,39.3333 67.8333,39.3333 66.5,40C 65.8641,42.3938 65.8641,44.8938 66.5,47.5C 65.5,47.5 64.5,47.5 63.5,47.5C 63.5,48.8333 63.5,50.1667 63.5,51.5C 64.5,51.5 65.5,51.5 66.5,51.5C 66.7947,53.7354 66.4614,55.7354 65.5,57.5C 65.7852,55.712 65.4519,54.0453 64.5,52.5C 63.5344,54.396 63.2011,56.396 63.5,58.5C 60.1667,58.5 58.5,60.1667 58.5,63.5C 57.5,63.5 56.5,63.5 55.5,63.5C 55.8333,69.1667 53.1667,71.8333 47.5,71.5C 47.5,74.1667 47.5,76.8333 47.5,79.5C 45.8333,79.5 44.1667,79.5 42.5,79.5C 41.1667,85.5 37.5,89.1667 31.5,90.5C 31.5,92.1667 31.5,93.8333 31.5,95.5C 28.8333,95.5 26.1667,95.5 23.5,95.5C 23.7076,97.9201 23.3742,100.253 22.5,102.5C 19.8718,103.466 17.8718,105.132 16.5,107.5C 15.5377,102.76 14.0377,102.427 12,106.5C 9.9369,113.339 9.10357,120.339 9.5,127.5C 8.5,127.5 7.5,127.5 6.5,127.5C 6.5,122.167 6.5,116.833 6.5,111.5C 5.16667,111.5 3.83333,111.5 2.5,111.5C 2.5,114.833 2.5,118.167 2.5,121.5C 1.5,118.167 0.5,114.833 -0.5,111.5C -0.5,105.5 -0.5,99.5 -0.5,93.5C 1.31149,91.6146 2.47816,89.2813 3,86.5C 3.17346,82.4592 3.67346,78.4592 4.5,74.5C 6.77319,77.3874 8.27319,80.7207 9,84.5C 10.7209,80.5341 12.3876,80.5341 14,84.5C 13.9536,82.6874 14.1203,81.0207 14.5,79.5C 15.0522,85.0147 16.8856,85.6813 20,81.5C 20.9219,78.0088 22.0885,74.6755 23.5,71.5C 22.448,71.6495 21.448,71.4828 20.5,71C 23.0244,69.117 24.3577,66.617 24.5,63.5C 28.5546,63.8242 32.5546,63.4909 36.5,62.5C 38.0198,60.3379 39.0198,58.0046 39.5,55.5C 43.9939,54.8413 45.6605,52.1746 44.5,47.5C 45.5,47.5 46.5,47.5 47.5,47.5C 47.5,46.5 47.5,45.5 47.5,44.5C 52.1746,45.6605 54.8413,43.9939 55.5,39.5C 58.0046,39.0198 60.3379,38.0198 62.5,36.5C 63.1667,32.5 63.8333,28.5 64.5,24.5C 66.2581,23.8721 67.7581,22.8721 69,21.5C 70.4659,23.3249 72.2992,23.8249 74.5,23C 75.6651,21.9164 76.9984,21.0831 78.5,20.5C 79.4519,18.9547 79.7852,17.288 79.5,15.5C 90.0199,15.4219 90.0199,14.7552 79.5,13.5C 79.5,11.5 79.5,9.5 79.5,7.5C 82.1873,7.66409 84.854,7.49742 87.5,7C 87.4456,5.64909 87.9456,4.48243 89,3.5C 91.0989,2.71348 93.2655,2.38014 95.5,2.5C 95.5,1.5 95.5,0.5 95.5,-0.5 Z"/></g>
<g><path style="opacity:1" fill="#7277a4" d="M 119.5,55.5 C 118.687,49.1796 121.354,46.5129 127.5,47.5C 126.81,52.2569 125.81,56.9235 124.5,61.5C 125.978,61.238 127.311,61.5713 128.5,62.5C 127.169,65.8338 125.335,68.8338 123,71.5C 122.503,69.1902 122.337,66.8568 122.5,64.5C 120.833,64.5 119.167,64.5 117.5,64.5C 117.676,61.2727 118.343,58.2727 119.5,55.5 Z"/></g>
<g><path style="opacity:1" fill="#646db8" d="M 119.5,55.5 C 120.482,54.8592 121.482,54.1925 122.5,53.5C 123.985,57.2519 123.319,60.5852 120.5,63.5C 119.52,60.9135 119.187,58.2469 119.5,55.5 Z"/></g>
<g><path style="opacity:1" fill="#97578b" d="M 190.5,58.5 C 191.451,59.9187 191.784,61.5853 191.5,63.5C 189.167,63.5 186.833,63.5 184.5,63.5C 184.162,65.854 183.662,68.1873 183,70.5C 179.156,72.4999 176.656,75.4999 175.5,79.5C 174.127,79.3433 172.793,79.51 171.5,80C 169,85.1667 165.167,89 160,91.5C 159.51,92.7932 159.343,94.1266 159.5,95.5C 158.167,95.5 156.833,95.5 155.5,95.5C 153.92,93.0726 152.086,90.7392 150,88.5C 149.333,87.1667 149.333,85.8333 150,84.5C 153.097,80.5018 157.263,78.8352 162.5,79.5C 165.571,74.4118 168.238,69.0784 170.5,63.5C 173.167,63.5 175.833,63.5 178.5,63.5C 178.69,60.1228 180.19,57.4561 183,55.5C 185.45,56.6422 187.95,57.6422 190.5,58.5 Z"/></g>
<g><path style="opacity:1" fill="#a36784" d="M 191.5,63.5 C 193.284,64.5738 194.451,66.2404 195,68.5C 195.906,74.1406 197.406,79.4739 199.5,84.5C 199.5,87.1667 199.5,89.8333 199.5,92.5C 198.398,87.8477 196.732,83.5144 194.5,79.5C 194.721,76.7212 194.388,74.0545 193.5,71.5C 191.774,69.1799 191.107,66.5133 191.5,63.5 Z"/></g>
<g><path style="opacity:1" fill="#8aa4a1" d="M 73.5,64.5 C 74.1429,66.0764 75.1429,67.4097 76.5,68.5C 75.928,69.9733 75.0946,71.3066 74,72.5C 73.5026,69.854 73.3359,67.1873 73.5,64.5 Z"/></g>
<g><path style="opacity:1" fill="#567cb2" d="M 82.5,42.5 C 82.369,41.7611 82.5357,41.0944 83,40.5C 85.3983,43.9633 87.2317,47.6299 88.5,51.5C 86.0516,51.0101 84.385,51.8434 83.5,54C 84.4142,56.6206 85.5809,59.1206 87,61.5C 88.7893,58.2658 90.4559,54.9325 92,51.5C 92.6514,49.765 92.4847,48.0983 91.5,46.5C 91.9767,45.5224 92.6433,44.6891 93.5,44C 99.6327,41.9731 105.633,42.1397 111.5,44.5C 111.786,46.2769 112.453,47.9436 113.5,49.5C 112.16,55.9541 110.493,62.2875 108.5,68.5C 105.365,69.4724 103.698,71.6391 103.5,75C 100.871,76.1723 98.5375,77.6723 96.5,79.5C 101.07,73.3691 105.404,67.0357 109.5,60.5C 108.332,58.7826 106.665,58.1159 104.5,58.5C 105.085,53.7447 106.085,49.078 107.5,44.5C 103.233,44.203 99.0659,44.5363 95,45.5C 92.9164,52.4211 91.4164,59.4211 90.5,66.5C 92.1667,66.5 93.8333,66.5 95.5,66.5C 95.8016,69.0593 95.4682,71.3926 94.5,73.5C 95.4408,68.8661 94.1075,67.6994 90.5,70C 89.4868,74.4706 87.1534,77.3039 83.5,78.5C 82.9781,77.3926 82.6448,76.2259 82.5,75C 83.5402,72.8693 85.0402,71.036 87,69.5C 87.4955,67.5273 87.6621,65.5273 87.5,63.5C 86.5,63.5 85.5,63.5 84.5,63.5C 85.024,67.3103 83.3574,69.3103 79.5,69.5C 81.7128,66.4078 83.3795,63.0744 84.5,59.5C 82.8333,59.5 81.1667,59.5 79.5,59.5C 79.9754,55.9161 80.9754,52.5828 82.5,49.5C 83.4511,48.0813 83.7845,46.4147 83.5,44.5C 78.706,43.9031 74.3727,44.5698 70.5,46.5C 68.2743,52.9616 66.941,59.6282 66.5,66.5C 68.1667,66.5 69.8333,66.5 71.5,66.5C 71.7845,68.4147 71.4511,70.0813 70.5,71.5C 70.5,70.1667 70.5,68.8333 70.5,67.5C 67.9556,67.8957 65.7889,67.229 64,65.5C 63.6882,62.6912 64.1882,60.0245 65.5,57.5C 66.4614,55.7354 66.7947,53.7354 66.5,51.5C 65.5,51.5 64.5,51.5 63.5,51.5C 63.5,50.1667 63.5,48.8333 63.5,47.5C 64.5,47.5 65.5,47.5 66.5,47.5C 65.8641,44.8938 65.8641,42.3938 66.5,40C 67.8333,39.3333 69.1667,39.3333 70.5,40C 74.0631,43.4387 78.0631,44.272 82.5,42.5 Z"/></g>
<g><path style="opacity:1" fill="#4080c5" d="M 75.5,47.5 C 76.8333,47.5 78.1667,47.5 79.5,47.5C 79.7373,48.791 79.404,49.791 78.5,50.5C 77.8826,50.6107 77.3826,50.944 77,51.5C 75.9236,55.5587 74.757,59.5587 73.5,63.5C 72.448,63.6495 71.448,63.4828 70.5,63C 71.7511,57.673 73.4177,52.5063 75.5,47.5 Z"/></g>
<g><path style="opacity:1" fill="#ddecf3" d="M 96.5,79.5 C 94.6921,78.0821 94.0254,76.0821 94.5,73.5C 95.4682,71.3926 95.8016,69.0593 95.5,66.5C 93.8333,66.5 92.1667,66.5 90.5,66.5C 91.4164,59.4211 92.9164,52.4211 95,45.5C 99.0659,44.5363 103.233,44.203 107.5,44.5C 106.085,49.078 105.085,53.7447 104.5,58.5C 106.665,58.1159 108.332,58.7826 109.5,60.5C 105.404,67.0357 101.07,73.3691 96.5,79.5 Z"/></g>
<g><path style="opacity:1" fill="#657b9f" d="M 101.5,47.5 C 102.497,47.4701 103.164,47.9701 103.5,49C 101.947,53.0468 100.947,57.2135 100.5,61.5C 104.439,61.1776 105.272,62.511 103,65.5C 101.667,67.5 100.333,69.5 99,71.5C 98.5034,69.1902 98.3367,66.8568 98.5,64.5C 96.8333,64.5 95.1667,64.5 93.5,64.5C 93.2153,61.1709 93.8819,58.1709 95.5,55.5C 95.5,58.1667 95.5,60.8333 95.5,63.5C 96.5,63.5 97.5,63.5 98.5,63.5C 98.5968,57.9104 99.5968,52.5771 101.5,47.5 Z"/></g>
<g><path style="opacity:1" fill="#5375bd" d="M 101.5,47.5 C 99.5968,52.5771 98.5968,57.9104 98.5,63.5C 97.5,63.5 96.5,63.5 95.5,63.5C 95.5,60.8333 95.5,58.1667 95.5,55.5C 95.523,53.0733 96.023,50.74 97,48.5C 98.3561,47.6198 99.8561,47.2865 101.5,47.5 Z"/></g>
<g><path style="opacity:1" fill="#5e82ae" d="M 75.5,47.5 C 73.4177,52.5063 71.7511,57.673 70.5,63C 71.448,63.4828 72.448,63.6495 73.5,63.5C 74.757,59.5587 75.9236,55.5587 77,51.5C 77.3826,50.944 77.8826,50.6107 78.5,50.5C 77.4172,54.0845 76.7506,57.7512 76.5,61.5C 77.9778,61.238 79.3112,61.5713 80.5,62.5C 79.1433,64.5654 77.81,66.5654 76.5,68.5C 75.1429,67.4097 74.1429,66.0764 73.5,64.5C 71.8333,64.5 70.1667,64.5 68.5,64.5C 70.301,58.9616 71.6344,53.2949 72.5,47.5C 73.5,47.5 74.5,47.5 75.5,47.5 Z"/></g>
<g><path style="opacity:1" fill="#9fc3e0" d="M 82.5,49.5 C 82.5,48.1667 82.5,46.8333 82.5,45.5C 78.3998,45.2367 74.3998,45.5701 70.5,46.5C 74.3727,44.5698 78.706,43.9031 83.5,44.5C 83.7845,46.4147 83.4511,48.0813 82.5,49.5 Z"/></g>
<g><path style="opacity:1" fill="#a05382" d="M 191.5,63.5 C 191.107,66.5133 191.774,69.1799 193.5,71.5C 190.941,71.3896 188.608,72.0562 186.5,73.5C 185.063,77.1434 183.563,80.81 182,84.5C 180.172,86.0814 178.172,87.4147 176,88.5C 175.503,90.8098 175.337,93.1432 175.5,95.5C 170.648,94.2772 167.481,95.9438 166,100.5C 164.172,102.081 162.172,103.415 160,104.5C 159.503,106.81 159.337,109.143 159.5,111.5C 159.784,113.415 159.451,115.081 158.5,116.5C 159.051,110.2 158.051,104.2 155.5,98.5C 155.5,97.5 155.5,96.5 155.5,95.5C 156.833,95.5 158.167,95.5 159.5,95.5C 159.343,94.1266 159.51,92.7932 160,91.5C 165.167,89 169,85.1667 171.5,80C 172.793,79.51 174.127,79.3433 175.5,79.5C 176.656,75.4999 179.156,72.4999 183,70.5C 183.662,68.1873 184.162,65.854 184.5,63.5C 186.833,63.5 189.167,63.5 191.5,63.5 Z"/></g>
<g><path style="opacity:1" fill="#417ec1" d="M 65.5,57.5 C 64.1882,60.0245 63.6882,62.6912 64,65.5C 65.7889,67.229 67.9556,67.8957 70.5,67.5C 70.5,68.8333 70.5,70.1667 70.5,71.5C 70.5,72.8333 70.5,74.1667 70.5,75.5C 69.5768,76.3029 68.5768,76.4696 67.5,76C 66.782,74.0126 65.782,72.1792 64.5,70.5C 63.0956,73.4033 63.429,76.0699 65.5,78.5C 64.9747,79.1924 64.3081,79.6924 63.5,80C 65.7148,80.1705 67.7148,80.8372 69.5,82C 66.4818,82.499 63.4818,82.3323 60.5,81.5C 57.8245,81.5307 56.4912,82.8641 56.5,85.5C 56.1667,85.5 55.8333,85.5 55.5,85.5C 52.5995,85.2796 49.9329,85.9462 47.5,87.5C 48.8333,88.5 48.8333,89.5 47.5,90.5C 45.8872,91.4274 44.2205,92.2607 42.5,93C 41.7476,93.6708 41.4142,94.5041 41.5,95.5C 40.1667,95.5 38.8333,95.5 37.5,95.5C 37.4835,106.179 37.1502,116.846 36.5,127.5C 35.5,127.5 34.5,127.5 33.5,127.5C 33.488,116.641 32.8213,105.974 31.5,95.5C 31.5,93.8333 31.5,92.1667 31.5,90.5C 37.5,89.1667 41.1667,85.5 42.5,79.5C 44.1667,79.5 45.8333,79.5 47.5,79.5C 47.5,76.8333 47.5,74.1667 47.5,71.5C 53.1667,71.8333 55.8333,69.1667 55.5,63.5C 56.5,63.5 57.5,63.5 58.5,63.5C 58.5,60.1667 60.1667,58.5 63.5,58.5C 63.2011,56.396 63.5344,54.396 64.5,52.5C 65.4519,54.0453 65.7852,55.712 65.5,57.5 Z"/></g>
<g><path style="opacity:1" fill="#77719f" d="M 132.5,63.5 C 133.944,67.9265 132.278,70.5932 127.5,71.5C 125.689,74.3013 124.022,77.3013 122.5,80.5C 124.291,81.1698 125.958,81.8365 127.5,82.5C 125.027,82.0882 123.694,83.0882 123.5,85.5C 120.262,86.7375 117.262,88.4042 114.5,90.5C 114.5,89.1667 114.5,87.8333 114.5,86.5C 113.5,86.5 112.5,86.5 111.5,86.5C 111.395,81.846 112.729,81.346 115.5,85C 117.134,85.4935 118.801,85.6602 120.5,85.5C 120.5,84.5 120.5,83.5 120.5,82.5C 117.512,82.8453 116.179,81.512 116.5,78.5C 116.971,76.7536 117.638,75.087 118.5,73.5C 118.547,71.9623 117.88,70.9623 116.5,70.5C 115.833,69.1667 115.167,67.8333 114.5,66.5C 116.167,66.5 117.833,66.5 119.5,66.5C 119.174,70.8839 119.508,75.2172 120.5,79.5C 124.171,73.8415 128.171,68.5081 132.5,63.5 Z"/></g>
<g><path style="opacity:1" fill="#ac4e7b" d="M 193.5,71.5 C 194.388,74.0545 194.721,76.7212 194.5,79.5C 193.876,77.1663 193.043,74.8329 192,72.5C 191.83,78.1958 191.33,83.8624 190.5,89.5C 188.5,90.8333 186.833,92.5 185.5,94.5C 183.833,95.1667 182.167,95.8333 180.5,96.5C 176.417,105.96 169.417,110.96 159.5,111.5C 159.337,109.143 159.503,106.81 160,104.5C 162.172,103.415 164.172,102.081 166,100.5C 167.481,95.9438 170.648,94.2772 175.5,95.5C 175.337,93.1432 175.503,90.8098 176,88.5C 178.172,87.4147 180.172,86.0814 182,84.5C 183.563,80.81 185.063,77.1434 186.5,73.5C 188.608,72.0562 190.941,71.3896 193.5,71.5 Z"/></g>
<g><path style="opacity:1" fill="#537cb3" d="M 70.5,75.5 C 70.2981,79.8453 71.6314,80.512 74.5,77.5C 74.5,78.5 74.5,79.5 74.5,80.5C 77.2898,80.0509 79.9564,80.0509 82.5,80.5C 80.7471,82.6999 78.4138,83.8666 75.5,84C 76.056,84.3826 76.3893,84.8826 76.5,85.5C 69.7823,84.2932 63.1156,84.2932 56.5,85.5C 56.4912,82.8641 57.8245,81.5307 60.5,81.5C 63.4818,82.3323 66.4818,82.499 69.5,82C 67.7148,80.8372 65.7148,80.1705 63.5,80C 64.3081,79.6924 64.9747,79.1924 65.5,78.5C 63.429,76.0699 63.0956,73.4033 64.5,70.5C 65.782,72.1792 66.782,74.0126 67.5,76C 68.5768,76.4696 69.5768,76.3029 70.5,75.5 Z"/></g>
<g><path style="opacity:1" fill="#5f71b4" d="M 113.5,61.5 C 113.328,62.4916 113.662,63.1583 114.5,63.5C 114.5,64.5 114.5,65.5 114.5,66.5C 115.167,67.8333 115.833,69.1667 116.5,70.5C 114.622,71.874 113.622,73.874 113.5,76.5C 113.608,77.4419 113.941,78.2753 114.5,79C 107.731,83.5995 101.731,89.0995 96.5,95.5C 94.8395,93.3436 93.5061,91.0103 92.5,88.5C 90.604,87.5344 88.604,87.2011 86.5,87.5C 86.5,88.5 86.5,89.5 86.5,90.5C 84.6173,86.2247 81.284,84.5581 76.5,85.5C 76.3893,84.8826 76.056,84.3826 75.5,84C 78.4138,83.8666 80.7471,82.6999 82.5,80.5C 79.9564,80.0509 77.2898,80.0509 74.5,80.5C 74.5,79.5 74.5,78.5 74.5,77.5C 75.6551,74.5251 77.3218,71.8584 79.5,69.5C 83.3574,69.3103 85.024,67.3103 84.5,63.5C 85.5,63.5 86.5,63.5 87.5,63.5C 87.6621,65.5273 87.4955,67.5273 87,69.5C 85.0402,71.036 83.5402,72.8693 82.5,75C 82.6448,76.2259 82.9781,77.3926 83.5,78.5C 87.1534,77.3039 89.4868,74.4706 90.5,70C 94.1075,67.6994 95.4408,68.8661 94.5,73.5C 94.0254,76.0821 94.6921,78.0821 96.5,79.5C 98.5375,77.6723 100.871,76.1723 103.5,75C 103.698,71.6391 105.365,69.4724 108.5,68.5C 109.583,68.5394 110.583,68.8728 111.5,69.5C 112.168,66.6944 112.834,64.0277 113.5,61.5 Z"/></g>
<g><path style="opacity:1" fill="#726aa9" d="M 116.5,70.5 C 117.88,70.9623 118.547,71.9623 118.5,73.5C 117.638,75.087 116.971,76.7536 116.5,78.5C 116.179,81.512 117.512,82.8453 120.5,82.5C 120.5,83.5 120.5,84.5 120.5,85.5C 118.801,85.6602 117.134,85.4935 115.5,85C 112.729,81.346 111.395,81.846 111.5,86.5C 112.5,86.5 113.5,86.5 114.5,86.5C 114.5,87.8333 114.5,89.1667 114.5,90.5C 112.134,93.8566 109.801,97.1899 107.5,100.5C 105.827,101.343 104.66,102.676 104,104.5C 103.727,109.229 103.061,113.896 102,118.5C 100.605,119.815 99.6054,119.481 99,117.5C 98.8413,119.343 98.3413,120.009 97.5,119.5C 97.8674,115.033 97.3674,110.7 96,106.5C 95.6667,109.5 95.3333,112.5 95,115.5C 94.3076,114.975 93.8076,114.308 93.5,113.5C 94.5519,108.867 95.0519,104.2 95,99.5C 94.3086,101.891 93.3086,101.891 92,99.5C 91.5045,97.5273 91.3379,95.5273 91.5,93.5C 89.3364,93.2785 87.6697,92.2785 86.5,90.5C 86.5,89.5 86.5,88.5 86.5,87.5C 88.604,87.2011 90.604,87.5344 92.5,88.5C 93.5061,91.0103 94.8395,93.3436 96.5,95.5C 101.731,89.0995 107.731,83.5995 114.5,79C 113.941,78.2753 113.608,77.4419 113.5,76.5C 113.622,73.874 114.622,71.874 116.5,70.5 Z"/></g>
<g><path style="opacity:1" fill="#4f80b0" d="M 55.5,85.5 C 49.6495,90.2066 44.9828,95.8732 41.5,102.5C 41.5,100.167 41.5,97.8333 41.5,95.5C 41.4142,94.5041 41.7476,93.6708 42.5,93C 44.2205,92.2607 45.8872,91.4274 47.5,90.5C 48.8333,89.5 48.8333,88.5 47.5,87.5C 49.9329,85.9462 52.5995,85.2796 55.5,85.5 Z"/></g>
<g><path style="opacity:1" fill="#e8eff5" d="M 63.5,93.5 C 66.5,93.5 69.5,93.5 72.5,93.5C 72.5,94.5 72.5,95.5 72.5,96.5C 71.3299,98.6502 70.3299,100.984 69.5,103.5C 70.325,104.386 71.325,104.719 72.5,104.5C 73.3543,105.632 73.3543,106.965 72.5,108.5C 70.1889,111.767 67.8556,115.1 65.5,118.5C 64.675,119.386 63.675,119.719 62.5,119.5C 62.9629,116.518 63.2962,113.518 63.5,110.5C 62.1667,110.5 60.8333,110.5 59.5,110.5C 59.7365,104.555 61.0699,98.8883 63.5,93.5 Z"/></g>
<g><path style="opacity:1" fill="#d9eaf5" d="M 76.5,85.5 C 80.0071,87.0978 83.0071,89.4311 85.5,92.5C 84.6618,92.8417 84.3284,93.5084 84.5,94.5C 82.7041,93.2073 81.0375,91.7073 79.5,90C 78.552,89.5172 77.552,89.3505 76.5,89.5C 65.1822,83.8029 55.6822,86.1362 48,96.5C 41.6617,107.248 42.1617,117.581 49.5,127.5C 49.8214,133.026 49.4881,138.36 48.5,143.5C 48.6658,138.821 48.4992,134.155 48,129.5C 47.8213,133.025 47.3213,136.359 46.5,139.5C 47.3187,133.2 45.9854,127.533 42.5,122.5C 40.3573,115.928 40.024,109.262 41.5,102.5C 44.9828,95.8732 49.6495,90.2066 55.5,85.5C 55.8333,85.5 56.1667,85.5 56.5,85.5C 63.1156,84.2932 69.7823,84.2932 76.5,85.5 Z"/></g>
<g><path style="opacity:1" fill="#5979ab" d="M 76.5,89.5 C 73.3095,89.5592 70.1429,89.8926 67,90.5C 64.5103,89.6643 62.0103,88.9976 59.5,88.5C 59.67,89.8221 59.3366,90.9887 58.5,92C 56.567,92.2511 54.7337,92.7511 53,93.5C 52.8142,95.9005 52.3142,98.2338 51.5,100.5C 50.2638,101.246 48.9305,101.579 47.5,101.5C 45.0751,107.867 45.0751,114.201 47.5,120.5C 48.5901,122.003 49.7567,122.336 51,121.5C 52.128,123.345 52.628,125.345 52.5,127.5C 51.8333,127.5 51.1667,127.5 50.5,127.5C 50.1667,127.5 49.8333,127.5 49.5,127.5C 42.1617,117.581 41.6617,107.248 48,96.5C 55.6822,86.1362 65.1822,83.8029 76.5,89.5 Z"/></g>
<g><path style="opacity:1" fill="#5575b8" d="M 76.5,89.5 C 77.552,89.3505 78.552,89.5172 79.5,90C 81.0375,91.7073 82.7041,93.2073 84.5,94.5C 84.5,94.8333 84.5,95.1667 84.5,95.5C 83.1534,98.4602 81.6534,101.46 80,104.5C 79.0434,100.901 79.5434,97.568 81.5,94.5C 74.9531,93.0615 72.4531,95.7282 74,102.5C 75.1169,102.665 76.2836,102.998 77.5,103.5C 80.2703,106.029 80.1037,108.362 77,110.5C 75.951,108.893 74.451,108.227 72.5,108.5C 73.3543,106.965 73.3543,105.632 72.5,104.5C 72.5,101.833 72.5,99.1667 72.5,96.5C 72.5,95.5 72.5,94.5 72.5,93.5C 69.5,93.5 66.5,93.5 63.5,93.5C 62.5,93.5 61.5,93.5 60.5,93.5C 60.7326,98.7571 59.066,103.257 55.5,107C 56.0487,110.381 58.0487,112.214 61.5,112.5C 60.0756,115.732 59.0756,119.065 58.5,122.5C 56.9582,121.699 55.2915,121.366 53.5,121.5C 53.7947,123.735 53.4614,125.735 52.5,127.5C 52.628,125.345 52.128,123.345 51,121.5C 49.7567,122.336 48.5901,122.003 47.5,120.5C 45.0751,114.201 45.0751,107.867 47.5,101.5C 48.9305,101.579 50.2638,101.246 51.5,100.5C 52.3142,98.2338 52.8142,95.9005 53,93.5C 54.7337,92.7511 56.567,92.2511 58.5,92C 59.3366,90.9887 59.67,89.8221 59.5,88.5C 62.0103,88.9976 64.5103,89.6643 67,90.5C 70.1429,89.8926 73.3095,89.5592 76.5,89.5 Z"/></g>
<g><path style="opacity:1" fill="#788795" d="M 72.5,96.5 C 72.5,99.1667 72.5,101.833 72.5,104.5C 71.325,104.719 70.325,104.386 69.5,103.5C 70.3299,100.984 71.3299,98.6502 72.5,96.5 Z"/></g>
<g><path style="opacity:1" fill="#c1496d" d="M 199.5,95.5 C 199.5,100.833 199.5,106.167 199.5,111.5C 197.955,117.361 196.455,123.361 195,129.5C 194.272,132.187 193.105,134.52 191.5,136.5C 194.047,128.431 195.714,120.098 196.5,111.5C 197.371,108.728 197.371,106.062 196.5,103.5C 192.47,104.506 190.803,107.173 191.5,111.5C 189.167,111.5 186.833,111.5 184.5,111.5C 184.5,117.5 181.5,120.5 175.5,120.5C 175.5,122.833 175.5,125.167 175.5,127.5C 173.167,127.5 170.833,127.5 168.5,127.5C 168.5,133.5 165.5,136.5 159.5,136.5C 159.5,138.833 159.5,141.167 159.5,143.5C 159.665,147.182 159.499,150.848 159,154.5C 157.461,153.454 157.295,152.121 158.5,150.5C 158.085,148.091 157.418,145.758 156.5,143.5C 155.29,146.659 155.29,149.826 156.5,153C 156.164,154.03 155.497,154.53 154.5,154.5C 154.5,152.5 154.5,150.5 154.5,148.5C 154.17,141.468 154.503,134.468 155.5,127.5C 156.983,138.012 158.316,138.012 159.5,127.5C 160.552,127.649 161.552,127.483 162.5,127C 165.86,122.061 170.027,117.895 175,114.5C 175.483,113.552 175.649,112.552 175.5,111.5C 176.822,111.67 177.989,111.337 179,110.5C 182.858,106.471 185.691,101.804 187.5,96.5C 188.689,95.5713 190.022,95.238 191.5,95.5C 191.833,99.5 192.167,99.5 192.5,95.5C 194.833,95.5 197.167,95.5 199.5,95.5 Z"/></g>
<g><path style="opacity:1" fill="#666db5" d="M 84.5,95.5 C 85.9063,95.9731 86.573,96.9731 86.5,98.5C 87.0112,101.693 87.6778,104.859 88.5,108C 88.4857,109.385 88.1524,110.551 87.5,111.5C 86.0403,113.335 84.707,115.335 83.5,117.5C 82.5344,115.604 82.2011,113.604 82.5,111.5C 84.9755,109.879 85.1422,107.879 83,105.5C 80.9614,106.978 80.1281,108.978 80.5,111.5C 79.1667,111.5 77.8333,111.5 76.5,111.5C 76.7918,116.25 74.9584,119.916 71,122.5C 70.0754,121.953 69.2421,121.287 68.5,120.5C 70.9557,116.907 72.289,112.907 72.5,108.5C 74.451,108.227 75.951,108.893 77,110.5C 80.1037,108.362 80.2703,106.029 77.5,103.5C 76.2836,102.998 75.1169,102.665 74,102.5C 72.4531,95.7282 74.9531,93.0615 81.5,94.5C 79.5434,97.568 79.0434,100.901 80,104.5C 81.6534,101.46 83.1534,98.4602 84.5,95.5 Z"/></g>
<g><path style="opacity:1" fill="#706e9b" d="M 76.5,85.5 C 81.284,84.5581 84.6173,86.2247 86.5,90.5C 87.6697,92.2785 89.3364,93.2785 91.5,93.5C 91.3379,95.5273 91.5045,97.5273 92,99.5C 93.3086,101.891 94.3086,101.891 95,99.5C 95.0519,104.2 94.5519,108.867 93.5,113.5C 93.8076,114.308 94.3076,114.975 95,115.5C 95.3333,112.5 95.6667,109.5 96,106.5C 97.3674,110.7 97.8674,115.033 97.5,119.5C 96.5084,119.328 95.8417,119.662 95.5,120.5C 90.8212,117.534 90.1545,113.7 93.5,109C 92.5299,102.562 89.8632,97.0622 85.5,92.5C 83.0071,89.4311 80.0071,87.0978 76.5,85.5 Z"/></g>
<g><path style="opacity:1" fill="#737dac" d="M 64.5,96.5 C 65.8333,96.5 67.1667,96.5 68.5,96.5C 68.3083,99.6008 67.6416,102.601 66.5,105.5C 70.0335,107.216 70.0335,109.216 66.5,111.5C 65.5713,110.311 65.238,108.978 65.5,107.5C 64.5,107.5 63.5,107.5 62.5,107.5C 63.0078,103.803 63.6745,100.136 64.5,96.5 Z"/></g>
<g><path style="opacity:1" fill="#f2e3ef" d="M 155.5,98.5 C 158.051,104.2 159.051,110.2 158.5,116.5C 157.16,120.317 155.326,123.983 153,127.5C 152.056,134.75 152.556,141.75 154.5,148.5C 154.5,150.5 154.5,152.5 154.5,154.5C 144.5,154.5 134.5,154.5 124.5,154.5C 124.5,150.5 124.5,146.5 124.5,142.5C 119.025,141.511 113.358,141.178 107.5,141.5C 107.824,137.445 107.491,133.445 106.5,129.5C 104.404,128.408 103.071,126.741 102.5,124.5C 103.913,121.339 105.58,118.339 107.5,115.5C 106.234,110.495 106.234,105.495 107.5,100.5C 109.801,97.1899 112.134,93.8566 114.5,90.5C 117.262,88.4042 120.262,86.7375 123.5,85.5C 137.594,81.3584 148.26,85.6917 155.5,98.5 Z"/></g>
<g><path style="opacity:1" fill="#826a93" d="M 137.5,87.5 C 133.119,87.3718 128.785,87.7051 124.5,88.5C 124.67,89.8221 124.337,90.9887 123.5,92C 121.22,92.2326 119.22,93.066 117.5,94.5C 120.208,95.5778 121.708,97.5778 122,100.5C 123.556,98.3652 125.389,98.0319 127.5,99.5C 126.083,102.998 125.417,106.665 125.5,110.5C 126.833,110.5 128.167,110.5 129.5,110.5C 129.492,113.545 129.159,116.545 128.5,119.5C 127.833,119.5 127.5,119.167 127.5,118.5C 127.5,116.167 127.5,113.833 127.5,111.5C 125.5,111.5 123.5,111.5 121.5,111.5C 121.82,108.102 121.487,104.768 120.5,101.5C 119.23,102.562 118.063,103.562 117,104.5C 115.301,103.594 113.467,103.261 111.5,103.5C 111.307,106.308 110.64,108.975 109.5,111.5C 108.811,99.2949 114.477,91.1282 126.5,87C 130.358,86.1901 134.024,86.3567 137.5,87.5 Z"/></g>
<g><path style="opacity:1" fill="#896487" d="M 143.5,89.5 C 145.833,91.1667 147.833,93.1667 149.5,95.5C 147.883,96.5893 147.05,98.256 147,100.5C 145.731,99.0953 145.231,97.4286 145.5,95.5C 144.167,95.5 142.833,95.5 141.5,95.5C 143.93,105.24 140.93,112.573 132.5,117.5C 135.309,113.375 137.643,109.041 139.5,104.5C 138.022,104.762 136.689,104.429 135.5,103.5C 137.423,100.479 138.423,97.1461 138.5,93.5C 141.588,93.8034 143.254,92.4701 143.5,89.5 Z"/></g>
<g><path style="opacity:1" fill="#836396" d="M 137.5,87.5 C 139.786,87.595 141.786,88.2616 143.5,89.5C 143.254,92.4701 141.588,93.8034 138.5,93.5C 135.167,93.5 131.833,93.5 128.5,93.5C 128.675,95.6208 128.341,97.6208 127.5,99.5C 125.389,98.0319 123.556,98.3652 122,100.5C 121.708,97.5778 120.208,95.5778 117.5,94.5C 119.22,93.066 121.22,92.2326 123.5,92C 124.337,90.9887 124.67,89.8221 124.5,88.5C 128.785,87.7051 133.119,87.3718 137.5,87.5 Z"/></g>
<g><path style="opacity:1" fill="#b74d74" d="M 194.5,79.5 C 196.732,83.5144 198.398,87.8477 199.5,92.5C 199.5,93.5 199.5,94.5 199.5,95.5C 197.167,95.5 194.833,95.5 192.5,95.5C 192.167,99.5 191.833,99.5 191.5,95.5C 190.022,95.238 188.689,95.5713 187.5,96.5C 185.691,101.804 182.858,106.471 179,110.5C 177.989,111.337 176.822,111.67 175.5,111.5C 175.649,112.552 175.483,113.552 175,114.5C 170.027,117.895 165.86,122.061 162.5,127C 161.552,127.483 160.552,127.649 159.5,127.5C 158.316,138.012 156.983,138.012 155.5,127.5C 154.503,134.468 154.17,141.468 154.5,148.5C 152.556,141.75 152.056,134.75 153,127.5C 155.326,123.983 157.16,120.317 158.5,116.5C 159.451,115.081 159.784,113.415 159.5,111.5C 169.417,110.96 176.417,105.96 180.5,96.5C 182.167,95.8333 183.833,95.1667 185.5,94.5C 186.833,92.5 188.5,90.8333 190.5,89.5C 191.33,83.8624 191.83,78.1958 192,72.5C 193.043,74.8329 193.876,77.1663 194.5,79.5 Z"/></g>
<g><path style="opacity:1" fill="#cc4569" d="M 196.5,111.5 C 192.569,113.01 190.903,116.01 191.5,120.5C 186.461,120.205 183.461,122.539 182.5,127.5C 177.607,128.404 175.273,131.404 175.5,136.5C 170.461,136.205 167.461,138.539 166.5,143.5C 164.167,143.5 161.833,143.5 159.5,143.5C 159.5,141.167 159.5,138.833 159.5,136.5C 165.5,136.5 168.5,133.5 168.5,127.5C 170.833,127.5 173.167,127.5 175.5,127.5C 175.5,125.167 175.5,122.833 175.5,120.5C 181.5,120.5 184.5,117.5 184.5,111.5C 186.833,111.5 189.167,111.5 191.5,111.5C 190.803,107.173 192.47,104.506 196.5,103.5C 197.371,106.062 197.371,108.728 196.5,111.5 Z"/></g>
<g><path style="opacity:1" fill="#477cbe" d="M 31.5,95.5 C 31.5,106.167 31.5,116.833 31.5,127.5C 28.4281,127.183 25.4281,127.516 22.5,128.5C 22.1667,129.167 21.8333,129.833 21.5,130.5C 23.4233,131.308 25.4233,131.808 27.5,132C 26.4287,135.15 24.262,137.983 21,140.5C 20.4604,142.135 20.9604,143.468 22.5,144.5C 21.8728,145.417 21.5394,146.417 21.5,147.5C 19.3736,148.048 17.3736,148.715 15.5,149.5C 14.5,149.5 13.5,149.5 12.5,149.5C 7.48529,140.797 4.15196,131.463 2.5,121.5C 2.5,118.167 2.5,114.833 2.5,111.5C 3.83333,111.5 5.16667,111.5 6.5,111.5C 6.5,116.833 6.5,122.167 6.5,127.5C 7.5,127.5 8.5,127.5 9.5,127.5C 9.10357,120.339 9.9369,113.339 12,106.5C 14.0377,102.427 15.5377,102.76 16.5,107.5C 17.8718,105.132 19.8718,103.466 22.5,102.5C 23.3742,100.253 23.7076,97.9201 23.5,95.5C 26.1667,95.5 28.8333,95.5 31.5,95.5 Z"/></g>
<g><path style="opacity:1" fill="#f6e6f6" d="M 138.5,93.5 C 138.423,97.1461 137.423,100.479 135.5,103.5C 136.689,104.429 138.022,104.762 139.5,104.5C 137.643,109.041 135.309,113.375 132.5,117.5C 131.713,119.104 130.38,119.771 128.5,119.5C 129.159,116.545 129.492,113.545 129.5,110.5C 128.167,110.5 126.833,110.5 125.5,110.5C 125.417,106.665 126.083,102.998 127.5,99.5C 128.341,97.6208 128.675,95.6208 128.5,93.5C 131.833,93.5 135.167,93.5 138.5,93.5 Z"/></g>
<g><path style="opacity:1" fill="#866b88" d="M 130.5,96.5 C 132.288,96.2148 133.955,96.5481 135.5,97.5C 133.895,100.314 132.895,103.314 132.5,106.5C 133.675,106.281 134.675,106.614 135.5,107.5C 134.826,109.517 133.659,111.183 132,112.5C 132,111.167 132,109.833 132,108.5C 130.795,107.929 129.628,107.262 128.5,106.5C 129.382,103.209 130.048,99.876 130.5,96.5 Z"/></g>
<g><path style="opacity:1" fill="#9e5584" d="M 149.5,95.5 C 157.156,105.784 157.49,116.45 150.5,127.5C 150.144,124.436 150.977,121.769 153,119.5C 153.827,115.459 153.66,111.459 152.5,107.5C 150.463,114.144 148.796,120.811 147.5,127.5C 147.167,127.5 146.833,127.5 146.5,127.5C 145.834,123.979 145.167,120.313 144.5,116.5C 143.526,118.743 143.192,121.076 143.5,123.5C 140.833,122.167 138.167,120.833 135.5,119.5C 135.35,122.459 136.35,124.959 138.5,127C 136.527,127.495 134.527,127.662 132.5,127.5C 131.662,130.686 130.662,133.853 129.5,137C 129.164,138.03 128.497,138.53 127.5,138.5C 122.167,138.5 116.833,138.5 111.5,138.5C 111.5,134.833 111.5,131.167 111.5,127.5C 114.5,127.5 117.5,127.5 120.5,127.5C 121.011,122.998 123.345,119.998 127.5,118.5C 127.5,119.167 127.833,119.5 128.5,119.5C 130.38,119.771 131.713,119.104 132.5,117.5C 140.93,112.573 143.93,105.24 141.5,95.5C 142.833,95.5 144.167,95.5 145.5,95.5C 145.231,97.4286 145.731,99.0953 147,100.5C 147.05,98.256 147.883,96.5893 149.5,95.5 Z"/></g>
<g><path style="opacity:1" fill="#7b7293" d="M 86.5,98.5 C 88.4958,101.64 89.8291,105.14 90.5,109C 88.9617,112.021 88.4617,115.188 89,118.5C 91.0771,120.076 92.5771,122.076 93.5,124.5C 92.9953,125.919 91.9953,126.585 90.5,126.5C 89.8288,125.153 89.8288,123.986 90.5,123C 87.8461,119.673 86.8461,115.839 87.5,111.5C 88.1524,110.551 88.4857,109.385 88.5,108C 87.6778,104.859 87.0112,101.693 86.5,98.5 Z"/></g>
<g><path style="opacity:1" fill="#8c5d90" d="M 127.5,118.5 C 123.345,119.998 121.011,122.998 120.5,127.5C 117.5,127.5 114.5,127.5 111.5,127.5C 111.167,127.5 110.833,127.5 110.5,127.5C 108.088,127.756 106.421,126.756 105.5,124.5C 106.423,122.076 107.923,120.076 110,118.5C 110.556,116.115 110.39,113.782 109.5,111.5C 110.64,108.975 111.307,106.308 111.5,103.5C 113.467,103.261 115.301,103.594 117,104.5C 118.063,103.562 119.23,102.562 120.5,101.5C 121.487,104.768 121.82,108.102 121.5,111.5C 123.5,111.5 125.5,111.5 127.5,111.5C 127.5,113.833 127.5,116.167 127.5,118.5 Z"/></g>
<g><path style="opacity:1" fill="#b24b79" d="M 150.5,127.5 C 149.512,132.64 149.179,137.974 149.5,143.5C 148.833,138.167 148.167,132.833 147.5,127.5C 148.796,120.811 150.463,114.144 152.5,107.5C 153.66,111.459 153.827,115.459 153,119.5C 150.977,121.769 150.144,124.436 150.5,127.5 Z"/></g>
<g><path style="opacity:1" fill="#83668d" d="M 107.5,100.5 C 106.234,105.495 106.234,110.495 107.5,115.5C 105.58,118.339 103.913,121.339 102.5,124.5C 103.071,126.741 104.404,128.408 106.5,129.5C 107.491,133.445 107.824,137.445 107.5,141.5C 113.358,141.178 119.025,141.511 124.5,142.5C 119.968,142.182 115.634,142.515 111.5,143.5C 109.833,143.5 108.167,143.5 106.5,143.5C 105.081,138.125 103.748,132.792 102.5,127.5C 100.167,127.5 97.8333,127.5 95.5,127.5C 96.6861,125.208 96.6861,122.874 95.5,120.5C 95.8417,119.662 96.5084,119.328 97.5,119.5C 98.3413,120.009 98.8413,119.343 99,117.5C 99.6054,119.481 100.605,119.815 102,118.5C 103.061,113.896 103.727,109.229 104,104.5C 104.66,102.676 105.827,101.343 107.5,100.5 Z"/></g>
<g><path style="opacity:1" fill="#fcfcfd" d="M -0.5,111.5 C 0.5,114.833 1.5,118.167 2.5,121.5C 4.15196,131.463 7.48529,140.797 12.5,149.5C 21.1667,164.167 32.8333,175.833 47.5,184.5C 50.678,187.258 54.3447,189.258 58.5,190.5C 59.209,191.404 60.209,191.737 61.5,191.5C 66.9907,194.714 72.9907,196.714 79.5,197.5C 81.1667,198.167 82.8333,198.833 84.5,199.5C 56.1667,199.5 27.8333,199.5 -0.5,199.5C -0.5,170.167 -0.5,140.833 -0.5,111.5 Z"/></g>
<g><path style="opacity:1" fill="#696db1" d="M 58.5,122.5 C 59.6354,124.213 61.302,124.88 63.5,124.5C 63.5,125.5 63.5,126.5 63.5,127.5C 62.2353,128.514 61.5687,130.014 61.5,132C 60.8773,136.147 60.5439,140.314 60.5,144.5C 58.1667,144.5 55.8333,144.5 53.5,144.5C 52.5,144.5 51.5,144.5 50.5,144.5C 50.5,138.833 50.5,133.167 50.5,127.5C 51.1667,127.5 51.8333,127.5 52.5,127.5C 53.4614,125.735 53.7947,123.735 53.5,121.5C 55.2915,121.366 56.9582,121.699 58.5,122.5 Z"/></g>
<g><path style="opacity:1" fill="#6d6fab" d="M 63.5,93.5 C 61.0699,98.8883 59.7365,104.555 59.5,110.5C 60.8333,110.5 62.1667,110.5 63.5,110.5C 63.2962,113.518 62.9629,116.518 62.5,119.5C 63.675,119.719 64.675,119.386 65.5,118.5C 67.8556,115.1 70.1889,111.767 72.5,108.5C 72.289,112.907 70.9557,116.907 68.5,120.5C 69.2421,121.287 70.0754,121.953 71,122.5C 74.9584,119.916 76.7918,116.25 76.5,111.5C 77.8333,111.5 79.1667,111.5 80.5,111.5C 80.1281,108.978 80.9614,106.978 83,105.5C 85.1422,107.879 84.9755,109.879 82.5,111.5C 81.8343,114.028 81.1676,116.694 80.5,119.5C 79.1575,120.902 78.3242,120.569 78,118.5C 76.229,122.103 73.3957,124.436 69.5,125.5C 68.1291,128.774 66.2958,131.774 64,134.5C 63.5034,132.19 63.3367,129.857 63.5,127.5C 63.5,126.5 63.5,125.5 63.5,124.5C 61.302,124.88 59.6354,124.213 58.5,122.5C 59.0756,119.065 60.0756,115.732 61.5,112.5C 58.0487,112.214 56.0487,110.381 55.5,107C 59.066,103.257 60.7326,98.7571 60.5,93.5C 61.5,93.5 62.5,93.5 63.5,93.5 Z"/></g>
<g><path style="opacity:1" fill="#7668a2" d="M 82.5,111.5 C 82.2011,113.604 82.5344,115.604 83.5,117.5C 84.707,115.335 86.0403,113.335 87.5,111.5C 86.8461,115.839 87.8461,119.673 90.5,123C 89.8288,123.986 89.8288,125.153 90.5,126.5C 90.1583,127.338 89.4916,127.672 88.5,127.5C 86.5567,129.971 85.5567,132.971 85.5,136.5C 80.4826,135.726 75.4826,136.226 70.5,138C 69.8333,139.667 69.1667,141.333 68.5,143C 69.8333,145.333 69.8333,147.667 68.5,150C 62.5,150.667 56.5,150.667 50.5,150C 51.7588,149.077 53.0921,148.243 54.5,147.5C 53.8728,146.583 53.5394,145.583 53.5,144.5C 55.8333,144.5 58.1667,144.5 60.5,144.5C 60.5439,140.314 60.8773,136.147 61.5,132C 61.5687,130.014 62.2353,128.514 63.5,127.5C 63.3367,129.857 63.5034,132.19 64,134.5C 66.2958,131.774 68.1291,128.774 69.5,125.5C 73.3957,124.436 76.229,122.103 78,118.5C 78.3242,120.569 79.1575,120.902 80.5,119.5C 81.1676,116.694 81.8343,114.028 82.5,111.5 Z"/></g>
<g><path style="opacity:1" fill="#a9507c" d="M 146.5,127.5 C 146.599,130.673 145.932,133.673 144.5,136.5C 143.833,135.167 143.167,133.833 142.5,132.5C 137.154,134.184 134.487,137.851 134.5,143.5C 132.167,143.5 129.833,143.5 127.5,143.5C 127.5,142.167 127.5,140.833 127.5,139.5C 127.5,139.167 127.5,138.833 127.5,138.5C 128.497,138.53 129.164,138.03 129.5,137C 130.662,133.853 131.662,130.686 132.5,127.5C 134.527,127.662 136.527,127.495 138.5,127C 136.35,124.959 135.35,122.459 135.5,119.5C 138.167,120.833 140.833,122.167 143.5,123.5C 143.192,121.076 143.526,118.743 144.5,116.5C 145.167,120.313 145.834,123.979 146.5,127.5 Z"/></g>
<g><path style="opacity:1" fill="#5475b9" d="M 31.5,95.5 C 32.8213,105.974 33.488,116.641 33.5,127.5C 34.5,127.5 35.5,127.5 36.5,127.5C 37.1502,116.846 37.4835,106.179 37.5,95.5C 38.8333,95.5 40.1667,95.5 41.5,95.5C 41.5,97.8333 41.5,100.167 41.5,102.5C 40.024,109.262 40.3573,115.928 42.5,122.5C 43.323,130.471 43.6563,138.471 43.5,146.5C 42.596,145.791 42.2627,144.791 42.5,143.5C 39.8333,143.5 37.1667,143.5 34.5,143.5C 34.6641,140.813 34.4974,138.146 34,135.5C 33.6924,134.692 33.1924,134.025 32.5,133.5C 31.513,136.768 31.1796,140.102 31.5,143.5C 30.1667,143.5 28.8333,143.5 27.5,143.5C 27.5,144.833 27.5,146.167 27.5,147.5C 25.5,147.5 23.5,147.5 21.5,147.5C 21.5394,146.417 21.8728,145.417 22.5,144.5C 20.9604,143.468 20.4604,142.135 21,140.5C 24.262,137.983 26.4287,135.15 27.5,132C 25.4233,131.808 23.4233,131.308 21.5,130.5C 21.8333,129.833 22.1667,129.167 22.5,128.5C 25.4281,127.516 28.4281,127.183 31.5,127.5C 31.5,116.833 31.5,106.167 31.5,95.5 Z"/></g>
<g><path style="opacity:1" fill="#915b8d" d="M 94.5,128.5 C 94.5,127.833 94.8333,127.5 95.5,127.5C 97.8333,127.5 100.167,127.5 102.5,127.5C 103.748,132.792 105.081,138.125 106.5,143.5C 104.856,143.714 103.356,143.38 102,142.5C 100.98,143.891 100.147,145.391 99.5,147C 93.534,149.133 89.8673,153.3 88.5,159.5C 87.5,159.5 86.5,159.5 85.5,159.5C 85.1667,163.167 83.1667,165.167 79.5,165.5C 79.5,166.5 79.5,167.5 79.5,168.5C 73.4536,170.379 69.1203,174.212 66.5,180C 62.8013,180.553 59.8013,182.22 57.5,185C 59.0016,185.583 60.3349,186.416 61.5,187.5C 60.2299,188.288 59.2299,189.288 58.5,190.5C 54.3447,189.258 50.678,187.258 47.5,184.5C 50.1194,184.232 52.6194,184.565 55,185.5C 56.1801,181.153 59.0134,178.82 63.5,178.5C 63.5,175.833 63.5,173.167 63.5,170.5C 69.0784,168.238 74.4118,165.571 79.5,162.5C 79.5,161.5 79.5,160.5 79.5,159.5C 80.5,159.5 81.5,159.5 82.5,159.5C 85.1667,154.167 87.8333,148.833 90.5,143.5C 92.2501,140.645 93.0835,137.311 93,133.5C 93.6355,132.034 94.4688,130.7 95.5,129.5C 95.3764,128.893 95.0431,128.56 94.5,128.5 Z"/></g>
<g><path style="opacity:1" fill="#b74b75" d="M 146.5,127.5 C 146.833,127.5 147.167,127.5 147.5,127.5C 148.167,132.833 148.833,138.167 149.5,143.5C 149.5,145.833 149.5,148.167 149.5,150.5C 142.167,150.5 134.833,150.5 127.5,150.5C 127.5,148.167 127.5,145.833 127.5,143.5C 129.833,143.5 132.167,143.5 134.5,143.5C 134.487,137.851 137.154,134.184 142.5,132.5C 143.167,133.833 143.833,135.167 144.5,136.5C 145.932,133.673 146.599,130.673 146.5,127.5 Z"/></g>
<g><path style="opacity:1" fill="#fcfbfc" d="M 199.5,111.5 C 199.5,140.833 199.5,170.167 199.5,199.5C 170.167,199.5 140.833,199.5 111.5,199.5C 119.401,197.486 127.401,195.319 135.5,193C 139.088,191.378 142.421,189.545 145.5,187.5C 148.992,186.59 151.992,184.924 154.5,182.5C 164.444,176.555 172.777,168.888 179.5,159.5C 185.004,152.685 189.004,145.019 191.5,136.5C 193.105,134.52 194.272,132.187 195,129.5C 196.455,123.361 197.955,117.361 199.5,111.5 Z"/></g>
<g><path style="opacity:1" fill="#656fb3" d="M 43.5,146.5 C 42.4879,150.797 42.4879,155.13 43.5,159.5C 41.1432,159.337 38.8098,159.503 36.5,160C 37.1905,161.067 37.6905,162.234 38,163.5C 38.6708,164.252 39.5041,164.586 40.5,164.5C 38.1168,165.893 36.7835,167.559 36.5,169.5C 34.7078,168.691 32.7078,168.191 30.5,168C 24.6306,162.363 19.6306,156.196 15.5,149.5C 17.3736,148.715 19.3736,148.048 21.5,147.5C 23.5,147.5 25.5,147.5 27.5,147.5C 27.5,146.167 27.5,144.833 27.5,143.5C 28.8333,143.5 30.1667,143.5 31.5,143.5C 31.1796,140.102 31.513,136.768 32.5,133.5C 33.1924,134.025 33.6924,134.692 34,135.5C 34.4974,138.146 34.6641,140.813 34.5,143.5C 37.1667,143.5 39.8333,143.5 42.5,143.5C 42.2627,144.791 42.596,145.791 43.5,146.5 Z"/></g>
<g><path style="opacity:1" fill="#ac8ea4" d="M 110.5,127.5 C 110.833,127.5 111.167,127.5 111.5,127.5C 111.5,131.167 111.5,134.833 111.5,138.5C 116.833,138.5 122.167,138.5 127.5,138.5C 127.5,138.833 127.5,139.167 127.5,139.5C 121.833,139.5 116.167,139.5 110.5,139.5C 110.5,135.5 110.5,131.5 110.5,127.5 Z"/></g>
<g><path style="opacity:1" fill="#826d85" d="M 94.5,128.5 C 95.0431,128.56 95.3764,128.893 95.5,129.5C 94.4688,130.7 93.6355,132.034 93,133.5C 93.0835,137.311 92.2501,140.645 90.5,143.5C 85.7863,143.173 81.1196,143.507 76.5,144.5C 75.2174,147.318 75.2174,150.152 76.5,153C 76.1639,154.03 75.4972,154.53 74.5,154.5C 74.5,150.167 74.5,145.833 74.5,141.5C 80.1667,141.5 85.8333,141.5 91.5,141.5C 91.3345,137.486 91.5012,133.486 92,129.5C 92.6708,128.748 93.5041,128.414 94.5,128.5 Z"/></g>
<g><path style="opacity:1" fill="#db4262" d="M 196.5,111.5 C 195.714,120.098 194.047,128.431 191.5,136.5C 189.004,145.019 185.004,152.685 179.5,159.5C 178.96,156.313 179.96,153.813 182.5,152C 182.493,149.275 183.493,146.609 185.5,144C 180.679,142.78 177.679,144.613 176.5,149.5C 174.776,148.339 173.11,148.505 171.5,150C 166.699,154.464 163.032,159.631 160.5,165.5C 154.141,168.525 149.475,173.192 146.5,179.5C 148.81,181.483 151.477,182.483 154.5,182.5C 151.992,184.924 148.992,186.59 145.5,187.5C 142.753,187.187 140.086,187.52 137.5,188.5C 135.883,190.983 133.55,192.483 130.5,193C 123.932,193.398 117.599,194.564 111.5,196.5C 111.5,195.5 111.5,194.5 111.5,193.5C 114.238,193.149 116.904,192.482 119.5,191.5C 120.973,187.687 123.64,185.353 127.5,184.5C 127.5,182.167 127.5,179.833 127.5,177.5C 128.552,177.649 129.552,177.483 130.5,177C 132.889,171.109 136.889,166.609 142.5,163.5C 143.452,161.955 143.785,160.288 143.5,158.5C 145.988,156.612 148.988,155.945 152.5,156.5C 152.281,157.675 152.614,158.675 153.5,159.5C 154.429,158.311 154.762,156.978 154.5,155.5C 154.5,155.167 154.5,154.833 154.5,154.5C 155.497,154.53 156.164,154.03 156.5,153C 155.29,149.826 155.29,146.659 156.5,143.5C 157.418,145.758 158.085,148.091 158.5,150.5C 157.295,152.121 157.461,153.454 159,154.5C 159.499,150.848 159.665,147.182 159.5,143.5C 161.833,143.5 164.167,143.5 166.5,143.5C 167.461,138.539 170.461,136.205 175.5,136.5C 175.273,131.404 177.607,128.404 182.5,127.5C 183.461,122.539 186.461,120.205 191.5,120.5C 190.903,116.01 192.569,113.01 196.5,111.5 Z"/></g>
<g><path style="opacity:1" fill="#736b94" d="M 49.5,127.5 C 49.8333,127.5 50.1667,127.5 50.5,127.5C 50.5,133.167 50.5,138.833 50.5,144.5C 51.5,144.5 52.5,144.5 53.5,144.5C 53.5394,145.583 53.8728,146.583 54.5,147.5C 53.0921,148.243 51.7588,149.077 50.5,150C 56.5,150.667 62.5,150.667 68.5,150C 69.8333,147.667 69.8333,145.333 68.5,143C 69.1667,141.333 69.8333,139.667 70.5,138C 75.4826,136.226 80.4826,135.726 85.5,136.5C 85.5567,132.971 86.5567,129.971 88.5,127.5C 88.5,131.167 88.5,134.833 88.5,138.5C 82.8333,138.5 77.1667,138.5 71.5,138.5C 71.5,142.833 71.5,147.167 71.5,151.5C 63.5,151.5 55.5,151.5 47.5,151.5C 47.8333,148.833 48.1667,146.167 48.5,143.5C 49.4881,138.36 49.8214,133.026 49.5,127.5 Z"/></g>
<g><path style="opacity:1" fill="#f2eef9" d="M 85.5,92.5 C 89.8632,97.0622 92.5299,102.562 93.5,109C 90.1545,113.7 90.8212,117.534 95.5,120.5C 96.6861,122.874 96.6861,125.208 95.5,127.5C 94.8333,127.5 94.5,127.833 94.5,128.5C 93.5041,128.414 92.6708,128.748 92,129.5C 91.5012,133.486 91.3345,137.486 91.5,141.5C 85.8333,141.5 80.1667,141.5 74.5,141.5C 74.5,145.833 74.5,150.167 74.5,154.5C 64.5,154.5 54.5,154.5 44.5,154.5C 44.9075,149.463 45.5742,144.463 46.5,139.5C 47.3213,136.359 47.8213,133.025 48,129.5C 48.4992,134.155 48.6658,138.821 48.5,143.5C 48.1667,146.167 47.8333,148.833 47.5,151.5C 55.6499,152.493 63.9832,152.826 72.5,152.5C 72.5,148.167 72.5,143.833 72.5,139.5C 78.0262,139.821 83.3595,139.488 88.5,138.5C 88.5,134.833 88.5,131.167 88.5,127.5C 89.4916,127.672 90.1583,127.338 90.5,126.5C 91.9953,126.585 92.9953,125.919 93.5,124.5C 92.5771,122.076 91.0771,120.076 89,118.5C 88.4617,115.188 88.9617,112.021 90.5,109C 89.8291,105.14 88.4958,101.64 86.5,98.5C 86.573,96.9731 85.9063,95.9731 84.5,95.5C 84.5,95.1667 84.5,94.8333 84.5,94.5C 84.3284,93.5084 84.6618,92.8417 85.5,92.5 Z"/></g>
<g><path style="opacity:1" fill="#a44f6e" d="M 149.5,143.5 C 150.768,145.905 151.435,148.572 151.5,151.5C 143.316,151.826 135.316,151.492 127.5,150.5C 134.833,150.5 142.167,150.5 149.5,150.5C 149.5,148.167 149.5,145.833 149.5,143.5 Z"/></g>
<g><path style="opacity:1" fill="#cbbfd9" d="M 88.5,138.5 C 83.3595,139.488 78.0262,139.821 72.5,139.5C 72.5,143.833 72.5,148.167 72.5,152.5C 63.9832,152.826 55.6499,152.493 47.5,151.5C 55.5,151.5 63.5,151.5 71.5,151.5C 71.5,147.167 71.5,142.833 71.5,138.5C 77.1667,138.5 82.8333,138.5 88.5,138.5 Z"/></g>
<g><path style="opacity:1" fill="#a35281" d="M 111.5,143.5 C 114.833,143.5 118.167,143.5 121.5,143.5C 121.657,144.873 121.49,146.207 121,147.5C 120.577,146.044 119.744,145.544 118.5,146C 116.396,148.042 115.229,150.542 115,153.5C 114,154.833 113,154.833 112,153.5C 111.505,155.473 111.338,157.473 111.5,159.5C 108.167,159.027 106,160.36 105,163.5C 102.603,166.4 99.7698,168.733 96.5,170.5C 95.513,173.768 95.1796,177.102 95.5,180.5C 89.5,181.833 85.8333,185.5 84.5,191.5C 82.8333,191.5 81.1667,191.5 79.5,191.5C 79.5,192.833 79.5,194.167 79.5,195.5C 74.3551,195.433 69.6884,194.099 65.5,191.5C 66.8739,187.955 68.8739,184.788 71.5,182C 72.6094,179.953 73.2761,177.787 73.5,175.5C 75.5,175.5 77.5,175.5 79.5,175.5C 79.3433,174.127 79.51,172.793 80,171.5C 85.1667,169 89,165.167 91.5,160C 92.7932,159.51 94.1266,159.343 95.5,159.5C 95.5,157.5 95.5,155.5 95.5,153.5C 97.7867,153.276 99.9534,152.609 102,151.5C 104.569,149.266 107.402,147.433 110.5,146C 111.252,145.329 111.586,144.496 111.5,143.5 Z"/></g>
<g><path style="opacity:1" fill="#736e9d" d="M 42.5,122.5 C 45.9854,127.533 47.3187,133.2 46.5,139.5C 45.5742,144.463 44.9075,149.463 44.5,154.5C 54.5,154.5 64.5,154.5 74.5,154.5C 74.631,155.239 74.4643,155.906 74,156.5C 70.6064,155.544 67.1064,155.211 63.5,155.5C 58.1667,155.5 52.8333,155.5 47.5,155.5C 47.762,156.978 47.4287,158.311 46.5,159.5C 45.0949,161.907 43.0949,163.574 40.5,164.5C 39.5041,164.586 38.6708,164.252 38,163.5C 37.6905,162.234 37.1905,161.067 36.5,160C 38.8098,159.503 41.1432,159.337 43.5,159.5C 42.4879,155.13 42.4879,150.797 43.5,146.5C 43.6563,138.471 43.323,130.471 42.5,122.5 Z"/></g>
<g><path style="opacity:1" fill="#7e649e" d="M 63.5,155.5 C 63.5,156.833 63.5,158.167 63.5,159.5C 61.8333,159.5 60.1667,159.5 58.5,159.5C 58.5086,161.308 58.0086,162.975 57,164.5C 56.3333,165.833 55.6667,165.833 55,164.5C 52.9662,165.743 52.1329,167.243 52.5,169C 50.9751,170.009 49.3084,170.509 47.5,170.5C 47.7377,173.408 46.7377,175.742 44.5,177.5C 45.1925,178.518 45.8592,179.518 46.5,180.5C 40.6687,179.209 37.3354,175.542 36.5,169.5C 36.7835,167.559 38.1168,165.893 40.5,164.5C 43.0949,163.574 45.0949,161.907 46.5,159.5C 47.4287,158.311 47.762,156.978 47.5,155.5C 52.8333,155.5 58.1667,155.5 63.5,155.5 Z"/></g>
<g><path style="opacity:1" fill="#8b5e92" d="M 90.5,143.5 C 87.8333,148.833 85.1667,154.167 82.5,159.5C 81.5,159.5 80.5,159.5 79.5,159.5C 79.5,160.5 79.5,161.5 79.5,162.5C 74.4118,165.571 69.0784,168.238 63.5,170.5C 63.5,173.167 63.5,175.833 63.5,178.5C 59.0134,178.82 56.1801,181.153 55,185.5C 52.6194,184.565 50.1194,184.232 47.5,184.5C 47.5674,183.041 47.2341,181.708 46.5,180.5C 45.8592,179.518 45.1925,178.518 44.5,177.5C 46.7377,175.742 47.7377,173.408 47.5,170.5C 49.3084,170.509 50.9751,170.009 52.5,169C 52.1329,167.243 52.9662,165.743 55,164.5C 55.6667,165.833 56.3333,165.833 57,164.5C 58.0086,162.975 58.5086,161.308 58.5,159.5C 60.1667,159.5 61.8333,159.5 63.5,159.5C 63.5,158.167 63.5,156.833 63.5,155.5C 67.1064,155.211 70.6064,155.544 74,156.5C 74.4643,155.906 74.631,155.239 74.5,154.5C 75.4972,154.53 76.1639,154.03 76.5,153C 75.2174,150.152 75.2174,147.318 76.5,144.5C 81.1196,143.507 85.7863,143.173 90.5,143.5 Z"/></g>
<g><path style="opacity:1" fill="#b84b73" d="M 154.5,155.5 C 154.762,156.978 154.429,158.311 153.5,159.5C 152.614,158.675 152.281,157.675 152.5,156.5C 148.988,155.945 145.988,156.612 143.5,158.5C 137.974,158.179 132.64,158.512 127.5,159.5C 127.439,162.05 126.106,163.55 123.5,164C 119.938,167.058 116.938,170.558 114.5,174.5C 112.167,175.167 109.833,175.833 107.5,176.5C 104.977,181.334 102.977,186.334 101.5,191.5C 99.5,191.5 97.5,191.5 95.5,191.5C 95.5,194.167 95.5,196.833 95.5,199.5C 94.5,199.5 93.5,199.5 92.5,199.5C 89.4159,198.744 87.7492,196.744 87.5,193.5C 85.8008,193.66 84.1341,193.494 82.5,193C 85.0101,192.624 87.3435,191.79 89.5,190.5C 93.9059,186.388 97.5725,181.722 100.5,176.5C 104.684,174.665 108.351,171.998 111.5,168.5C 119.061,167.246 121.561,162.913 119,155.5C 115.84,152.926 115.84,150.259 119,147.5C 121.259,149.246 122.592,151.58 123,154.5C 123.739,155.574 124.739,156.241 126,156.5C 135.459,155.539 144.959,155.205 154.5,155.5 Z"/></g>
<g><path style="opacity:1" fill="#ae5079" d="M 111.5,143.5 C 115.634,142.515 119.968,142.182 124.5,142.5C 124.5,146.5 124.5,150.5 124.5,154.5C 134.5,154.5 144.5,154.5 154.5,154.5C 154.5,154.833 154.5,155.167 154.5,155.5C 144.959,155.205 135.459,155.539 126,156.5C 124.739,156.241 123.739,155.574 123,154.5C 122.592,151.58 121.259,149.246 119,147.5C 115.84,150.259 115.84,152.926 119,155.5C 121.561,162.913 119.061,167.246 111.5,168.5C 108.351,171.998 104.684,174.665 100.5,176.5C 97.5725,181.722 93.9059,186.388 89.5,190.5C 87.3435,191.79 85.0101,192.624 82.5,193C 84.1341,193.494 85.8008,193.66 87.5,193.5C 87.7492,196.744 89.4159,198.744 92.5,199.5C 89.8333,199.5 87.1667,199.5 84.5,199.5C 82.8333,198.833 81.1667,198.167 79.5,197.5C 79.5,196.833 79.5,196.167 79.5,195.5C 79.5,194.167 79.5,192.833 79.5,191.5C 81.1667,191.5 82.8333,191.5 84.5,191.5C 85.8333,185.5 89.5,181.833 95.5,180.5C 95.1796,177.102 95.513,173.768 96.5,170.5C 99.7698,168.733 102.603,166.4 105,163.5C 106,160.36 108.167,159.027 111.5,159.5C 111.338,157.473 111.505,155.473 112,153.5C 113,154.833 114,154.833 115,153.5C 115.229,150.542 116.396,148.042 118.5,146C 119.744,145.544 120.577,146.044 121,147.5C 121.49,146.207 121.657,144.873 121.5,143.5C 118.167,143.5 114.833,143.5 111.5,143.5 Z"/></g>
<g><path style="opacity:1" fill="#e5415c" d="M 179.5,159.5 C 172.777,168.888 164.444,176.555 154.5,182.5C 151.477,182.483 148.81,181.483 146.5,179.5C 149.475,173.192 154.141,168.525 160.5,165.5C 163.032,159.631 166.699,154.464 171.5,150C 173.11,148.505 174.776,148.339 176.5,149.5C 177.679,144.613 180.679,142.78 185.5,144C 183.493,146.609 182.493,149.275 182.5,152C 179.96,153.813 178.96,156.313 179.5,159.5 Z"/></g>
<g><path style="opacity:1" fill="#ca476a" d="M 127.5,159.5 C 132.64,158.512 137.974,158.179 143.5,158.5C 143.785,160.288 143.452,161.955 142.5,163.5C 136.889,166.609 132.889,171.109 130.5,177C 129.552,177.483 128.552,177.649 127.5,177.5C 127.5,179.833 127.5,182.167 127.5,184.5C 123.64,185.353 120.973,187.687 119.5,191.5C 116.904,192.482 114.238,193.149 111.5,193.5C 111.5,194.5 111.5,195.5 111.5,196.5C 117.599,194.564 123.932,193.398 130.5,193C 133.55,192.483 135.883,190.983 137.5,188.5C 140.086,187.52 142.753,187.187 145.5,187.5C 142.421,189.545 139.088,191.378 135.5,193C 127.401,195.319 119.401,197.486 111.5,199.5C 106.167,199.5 100.833,199.5 95.5,199.5C 95.5,196.833 95.5,194.167 95.5,191.5C 97.5,191.5 99.5,191.5 101.5,191.5C 104.833,191.5 108.167,191.5 111.5,191.5C 111.5,189.167 111.5,186.833 111.5,184.5C 117.5,184.5 120.5,181.5 120.5,175.5C 121.978,175.762 123.311,175.429 124.5,174.5C 126.559,173.049 127.559,171.049 127.5,168.5C 132.429,167.685 134.762,164.685 134.5,159.5C 132.167,159.5 129.833,159.5 127.5,159.5 Z"/></g>
<g><path style="opacity:1" fill="#746f9c" d="M 12.5,149.5 C 13.5,149.5 14.5,149.5 15.5,149.5C 19.6306,156.196 24.6306,162.363 30.5,168C 32.7078,168.191 34.7078,168.691 36.5,169.5C 37.3354,175.542 40.6687,179.209 46.5,180.5C 47.2341,181.708 47.5674,183.041 47.5,184.5C 32.8333,175.833 21.1667,164.167 12.5,149.5 Z"/></g>
<g><path style="opacity:1" fill="#985688" d="M 106.5,143.5 C 108.167,143.5 109.833,143.5 111.5,143.5C 111.586,144.496 111.252,145.329 110.5,146C 107.402,147.433 104.569,149.266 102,151.5C 99.9534,152.609 97.7867,153.276 95.5,153.5C 95.5,155.5 95.5,157.5 95.5,159.5C 94.1266,159.343 92.7932,159.51 91.5,160C 89,165.167 85.1667,169 80,171.5C 79.51,172.793 79.3433,174.127 79.5,175.5C 77.5,175.5 75.5,175.5 73.5,175.5C 73.2761,177.787 72.6094,179.953 71.5,182C 68.8739,184.788 66.8739,187.955 65.5,191.5C 64.1667,191.5 62.8333,191.5 61.5,191.5C 60.209,191.737 59.209,191.404 58.5,190.5C 59.2299,189.288 60.2299,188.288 61.5,187.5C 60.3349,186.416 59.0016,185.583 57.5,185C 59.8013,182.22 62.8013,180.553 66.5,180C 69.1203,174.212 73.4536,170.379 79.5,168.5C 79.5,167.5 79.5,166.5 79.5,165.5C 83.1667,165.167 85.1667,163.167 85.5,159.5C 86.5,159.5 87.5,159.5 88.5,159.5C 89.8673,153.3 93.534,149.133 99.5,147C 100.147,145.391 100.98,143.891 102,142.5C 103.356,143.38 104.856,143.714 106.5,143.5 Z"/></g>
<g><path style="opacity:1" fill="#c0496d" d="M 127.5,159.5 C 129.833,159.5 132.167,159.5 134.5,159.5C 134.762,164.685 132.429,167.685 127.5,168.5C 127.559,171.049 126.559,173.049 124.5,174.5C 123.311,175.429 121.978,175.762 120.5,175.5C 120.5,181.5 117.5,184.5 111.5,184.5C 111.5,186.833 111.5,189.167 111.5,191.5C 108.167,191.5 104.833,191.5 101.5,191.5C 102.977,186.334 104.977,181.334 107.5,176.5C 109.833,175.833 112.167,175.167 114.5,174.5C 116.938,170.558 119.938,167.058 123.5,164C 126.106,163.55 127.439,162.05 127.5,159.5 Z"/></g>
<g><path style="opacity:1" fill="#976681" d="M 61.5,191.5 C 62.8333,191.5 64.1667,191.5 65.5,191.5C 69.6884,194.099 74.3551,195.433 79.5,195.5C 79.5,196.167 79.5,196.833 79.5,197.5C 72.9907,196.714 66.9907,194.714 61.5,191.5 Z"/></g>
</svg>
